<svg width="329" height="122" viewBox="0 0 329 122" fill="none" xmlns="http://www.w3.org/2000/svg">
<g clip-path="url(#clip0_11_19)">
<path d="M3.78125 41.084C3.78125 32.4844 11.6582 14.5625 36.7344 14.5625C59.1367 14.5625 69.6875 23.5234 69.6875 30.6055C69.6875 36.8203 65.0625 40.7227 59.1367 39.6387C53.5723 38.5547 49.2363 34.7246 39.0469 32.4844C28.8574 30.2441 22.8594 34.7246 21.5586 39.6387C19.8242 45.998 21.5586 52.9355 39.0469 55.6816C62.75 59.4395 69.6875 73.2422 69.6875 89.3574C69.6875 105.4 50.248 114 36.7344 114C23.2207 114 3.78125 114.361 3.78125 101.281C3.78125 95.2832 9.41797 87.1172 25.1719 93.4043C40.998 99.7637 46.6348 92.3926 46.6348 85.5996C46.6348 75.8438 39.6973 74.3984 25.1719 69.4844C3.78125 62.3301 3.78125 49.6836 3.78125 41.084ZM81.5391 44.625C81.5391 10.5156 83.8516 10.2266 92.2344 10.2266C109.217 10.2266 90.8613 35.8809 103.797 42.0234C109.289 44.625 109.289 34.7969 124.898 36.5312C133.859 37.543 146 41.7344 146 76.4219C146 109.664 143.109 114 138.195 114C121.213 114 146.289 58.2109 119.695 58.2109C77.7812 58.2109 111.023 114 90.2109 114C87.6094 114 81.5391 114 81.5391 92.8984V44.625ZM163.922 10.5156C167.969 10.5156 170.281 13.1172 170.281 16.875C170.281 20.6328 166.234 23.2344 163.922 23.2344C159.875 23.2344 157.562 18.6094 157.562 16.875C157.562 13.6953 159.008 10.5156 163.922 10.5156ZM163.922 37.1094C170.281 37.1094 170.281 45.2031 170.281 71.2188C170.281 111.688 168.547 114 163.922 114C159.297 114 157.562 99.8359 157.562 71.2188C157.562 39.1328 157.562 37.1094 163.922 37.1094ZM180.688 72.6641C180.398 56.1875 198.609 37.1094 215.086 37.3984C240.523 37.3984 247.461 52.1406 247.461 58.2109C247.461 64.2812 247.461 64.5703 241.969 64.5703C232.141 64.5703 232.43 51.8516 217.109 51.2734C201.789 50.6953 196.008 63.7031 195.141 74.9766C194.273 86.25 198.898 99.5469 217.109 99.8359C235.32 100.125 233.875 87.1172 241.969 87.1172C245.727 87.1172 247.461 87.9844 247.461 92.8984C247.461 97.8125 243.992 113.711 215.086 114C186.18 114.289 180.977 89.1406 180.688 72.6641ZM282.438 37.1094C288.58 37.2539 292.627 39.7832 295.734 41.7344C297.686 43.0352 299.348 44.0469 300.938 44.0469C303.611 44.0469 304.84 42.5293 306.213 40.9395C307.73 39.0605 309.32 37.1094 313.367 37.1094C321.461 37.1094 321.461 46.6484 321.461 68.9062V87.4062C321.461 114 317.27 114 313.367 114C311.777 114 310.766 112.916 309.537 111.543C307.803 109.664 305.707 107.352 300.938 107.352C296.602 107.352 293.711 108.869 290.748 110.459C287.496 112.193 284.1 114 278.68 114C263.143 114 254.688 102.148 254.688 77.2891C254.688 55.3203 264.732 36.6035 282.438 37.1094ZM281.281 56.4766C270.586 56.4766 268.273 69.4844 268.852 79.3125C269.43 89.1406 275.789 95.7891 285.617 95.5C295.445 95.2109 301.805 86.8281 302.383 77C302.961 67.1719 291.977 56.4766 281.281 56.4766Z" fill="black"/>
</g>
<defs>
<clipPath id="clip0_11_19">
<rect width="329" height="122" fill="white"/>
</clipPath>
</defs>
</svg>
